# This file uses centimeters as units for non-parametric coordinates.

mtllib copter_model.mtl
g default
v -1.500000 4.701123 3.903296
v -1.500000 3.597760 0.029836
v -0.500000 4.701123 3.903296
v -0.500000 3.597760 0.029836
v -0.500000 5.065184 3.903296
v -0.500000 3.961821 0.029836
v -1.500000 5.065184 3.903296
v -1.500000 3.961821 0.029836
v -1.936730 3.279791 0.182030
v 1.936730 3.279791 0.182030
v -1.936730 4.279791 0.182030
v 1.936730 4.279791 0.182030
v -1.936730 4.279791 -0.182030
v 1.936730 4.279791 -0.182030
v -1.936730 3.279791 -0.182030
v 1.936730 3.279791 -0.182030
v 0.500000 3.597760 -0.093803
v 0.500000 4.701123 -3.967262
v 1.500000 3.597760 -0.093803
v 1.500000 4.701123 -3.967262
v 1.500000 3.961821 -0.093803
v 1.500000 5.065184 -3.967262
v 0.500000 3.961821 -0.093803
v 0.500000 5.065184 -3.967262
v -0.715137 -2.101952 0.358817
v 0.715137 -2.101952 0.358817
v -0.715137 2.101952 0.176631
v 0.715137 2.101952 0.176631
v -0.715137 2.101952 -0.176631
v 0.715137 2.101952 -0.176631
v -0.715137 -2.101952 0.005555
v 0.715137 -2.101952 0.005555
v 0.715137 1.594953 0.183603
v -0.715137 1.594953 0.183603
v -0.715137 1.594953 -0.169658
v 0.715137 1.594953 -0.169658
v -0.715137 2.101952 0.176631
v 0.715137 2.101952 0.176631
v 0.715137 2.101952 -0.176631
v -0.715137 2.101952 -0.176631
v -0.715137 3.292185 0.176631
v 0.715137 3.292185 0.176631
v 0.715137 3.292185 -0.176631
v -0.715137 3.292185 -0.176631
vt 0.375000 0.000000
vt 0.625000 0.000000
vt 0.375000 0.250000
vt 0.625000 0.250000
vt 0.375000 0.500000
vt 0.625000 0.500000
vt 0.375000 0.750000
vt 0.625000 0.750000
vt 0.375000 1.000000
vt 0.625000 1.000000
vt 0.875000 0.000000
vt 0.875000 0.250000
vt 0.125000 0.000000
vt 0.125000 0.250000
vt 0.375000 0.000000
vt 0.625000 0.000000
vt 0.625000 0.250000
vt 0.375000 0.250000
vt 0.625000 0.500000
vt 0.375000 0.500000
vt 0.625000 0.750000
vt 0.375000 0.750000
vt 0.625000 1.000000
vt 0.375000 1.000000
vt 0.875000 0.000000
vt 0.875000 0.250000
vt 0.125000 0.000000
vt 0.125000 0.250000
vt 0.375000 0.000000
vt 0.625000 0.000000
vt 0.625000 0.250000
vt 0.375000 0.250000
vt 0.625000 0.500000
vt 0.375000 0.500000
vt 0.625000 0.750000
vt 0.375000 0.750000
vt 0.625000 1.000000
vt 0.375000 1.000000
vt 0.875000 0.000000
vt 0.875000 0.250000
vt 0.125000 0.000000
vt 0.125000 0.250000
vt 0.375000 0.000000
vt 0.625000 0.000000
vt 0.625000 0.219850
vt 0.375000 0.219850
vt 0.375000 0.250000
vt 0.625000 0.250000
vt 0.625000 0.500000
vt 0.375000 0.500000
vt 0.375000 0.530150
vt 0.625000 0.530150
vt 0.625000 0.750000
vt 0.375000 0.750000
vt 0.625000 1.000000
vt 0.375000 1.000000
vt 0.875000 0.000000
vt 0.875000 0.219850
vt 0.125000 0.000000
vt 0.125000 0.219850
vt 0.625000 0.250000
vt 0.375000 0.250000
vt 0.125000 0.250000
vt 0.375000 0.500000
vt 0.625000 0.500000
vt 0.875000 0.250000
vt 0.625000 0.250000
vt 0.375000 0.250000
vt 0.625000 0.500000
vt 0.375000 0.500000
vn 0.000000 -0.961743 0.273954
vn 0.000000 -0.961743 0.273954
vn 0.000000 -0.961743 0.273954
vn 0.000000 -0.961743 0.273954
vn 1.000000 0.000000 0.000000
vn 1.000000 0.000000 0.000000
vn 1.000000 0.000000 0.000000
vn 1.000000 0.000000 0.000000
vn 0.000000 0.961743 -0.273954
vn 0.000000 0.961743 -0.273954
vn 0.000000 0.961743 -0.273954
vn 0.000000 0.961743 -0.273954
vn -1.000000 0.000000 0.000000
vn -1.000000 0.000000 0.000000
vn -1.000000 0.000000 0.000000
vn -1.000000 0.000000 0.000000
vn 0.000000 0.000000 -1.000000
vn 0.000000 0.000000 -1.000000
vn 0.000000 0.000000 -1.000000
vn 0.000000 0.000000 -1.000000
vn 0.000000 0.000000 1.000000
vn 0.000000 0.000000 1.000000
vn 0.000000 0.000000 1.000000
vn 0.000000 0.000000 1.000000
vn 0.000000 0.000000 1.000000
vn 0.000000 0.000000 1.000000
vn 0.000000 0.000000 1.000000
vn 0.000000 0.000000 1.000000
vn 0.000000 1.000000 0.000000
vn 0.000000 1.000000 0.000000
vn 0.000000 1.000000 0.000000
vn 0.000000 1.000000 0.000000
vn 0.000000 0.000000 -1.000000
vn 0.000000 0.000000 -1.000000
vn 0.000000 0.000000 -1.000000
vn 0.000000 0.000000 -1.000000
vn 0.000000 -1.000000 0.000000
vn 0.000000 -1.000000 0.000000
vn 0.000000 -1.000000 0.000000
vn 0.000000 -1.000000 0.000000
vn 1.000000 0.000000 0.000000
vn 1.000000 0.000000 0.000000
vn 1.000000 0.000000 0.000000
vn 1.000000 0.000000 0.000000
vn -1.000000 0.000000 0.000000
vn -1.000000 0.000000 0.000000
vn -1.000000 0.000000 0.000000
vn -1.000000 0.000000 0.000000
vn 0.000000 -0.961743 -0.273954
vn 0.000000 -0.961743 -0.273954
vn 0.000000 -0.961743 -0.273954
vn 0.000000 -0.961743 -0.273954
vn 1.000000 0.000000 0.000000
vn 1.000000 0.000000 0.000000
vn 1.000000 0.000000 0.000000
vn 1.000000 0.000000 0.000000
vn 0.000000 0.961743 0.273954
vn 0.000000 0.961743 0.273954
vn 0.000000 0.961743 0.273954
vn 0.000000 0.961743 0.273954
vn -1.000000 0.000000 0.000000
vn -1.000000 0.000000 0.000000
vn -1.000000 0.000000 0.000000
vn -1.000000 0.000000 0.000000
vn 0.000000 0.000000 -1.000000
vn 0.000000 0.000000 -1.000000
vn 0.000000 0.000000 -1.000000
vn 0.000000 0.000000 -1.000000
vn 0.000000 0.000000 1.000000
vn 0.000000 0.000000 1.000000
vn 0.000000 0.000000 1.000000
vn 0.000000 0.000000 1.000000
vn 0.000000 0.047341 0.998879
vn 0.000000 0.047341 0.998879
vn 0.000000 0.043297 0.999062
vn 0.000000 0.043297 0.999062
vn 0.000000 1.000000 0.000000
vn 0.000000 1.000000 0.000000
vn 0.000000 1.000000 0.000000
vn 0.000000 1.000000 0.000000
vn 0.000000 -0.043297 -0.999062
vn 0.000000 -0.043297 -0.999062
vn 0.000000 -0.047341 -0.998879
vn 0.000000 -0.047341 -0.998879
vn 0.000000 -1.000000 0.000000
vn 0.000000 -1.000000 0.000000
vn 0.000000 -1.000000 0.000000
vn 0.000000 -1.000000 0.000000
vn 1.000000 0.000000 0.000000
vn 1.000000 0.000000 0.000000
vn 1.000000 -0.000000 0.000000
vn 1.000000 -0.000000 0.000000
vn -1.000000 0.000000 0.000000
vn -1.000000 0.000000 0.000000
vn -1.000000 -0.000000 0.000000
vn -1.000000 -0.000000 0.000000
vn 0.000000 0.013752 0.999906
vn 0.000000 0.013752 0.999906
vn -1.000000 -0.000001 0.000000
vn -1.000000 -0.000001 0.000000
vn 0.000000 -0.013752 -0.999906
vn 0.000000 -0.013752 -0.999906
vn 1.000000 -0.000001 0.000000
vn 1.000000 -0.000001 0.000000
vn 0.000000 -0.104948 -0.994478
vn 0.000000 -0.104948 -0.994478
vn 0.000000 -0.104948 -0.994478
vn 0.000000 -0.104948 -0.994478
vn 0.000000 1.000000 0.000000
vn 0.000000 1.000000 0.000000
vn 0.000000 1.000000 0.000000
vn 0.000000 1.000000 0.000000
vn 0.000000 -0.104948 0.994478
vn 0.000000 -0.104948 0.994478
vn 0.000000 -0.104948 0.994478
vn 0.000000 -0.104948 0.994478
vn 0.000000 1.000000 0.000000
vn 0.000000 1.000000 0.000000
vn 0.000000 1.000000 0.000000
vn 0.000000 1.000000 0.000000
vn 0.000000 0.000000 1.000000
vn 0.000000 0.000000 1.000000
vn 0.000000 0.000000 1.000000
vn 0.000000 0.000000 1.000000
vn 1.000000 -0.000000 0.000000
vn 1.000000 -0.000000 0.000000
vn 1.000000 -0.000000 0.000000
vn 1.000000 -0.000000 0.000000
vn 0.000000 0.000000 -1.000000
vn 0.000000 0.000000 -1.000000
vn 0.000000 0.000000 -1.000000
vn 0.000000 0.000000 -1.000000
vn -1.000000 -0.000000 0.000000
vn -1.000000 -0.000000 0.000000
vn -1.000000 -0.000000 0.000000
vn -1.000000 -0.000000 0.000000
s off
g pCube1
usemtl initialShadingGroup
f 1/1/1 2/2/2 4/4/3 3/3/4
f 3/3/5 4/4/6 6/6/7 5/5/8
f 5/5/9 6/6/10 8/8/11 7/7/12
f 7/7/13 8/8/14 2/10/15 1/9/16
f 2/2/17 8/11/18 6/12/19 4/4/20
f 7/13/21 1/1/22 3/3/23 5/14/24
f 9/15/25 10/16/26 12/17/27 11/18/28
f 11/18/29 12/17/30 14/19/31 13/20/32
f 13/20/33 14/19/34 16/21/35 15/22/36
f 15/22/37 16/21/38 10/23/39 9/24/40
f 10/16/41 16/25/42 14/26/43 12/17/44
f 15/27/45 9/15/46 11/18/47 13/28/48
f 17/29/49 18/30/50 20/31/51 19/32/52
f 19/32/53 20/31/54 22/33/55 21/34/56
f 21/34/57 22/33/58 24/35/59 23/36/60
f 23/36/61 24/35/62 18/37/63 17/38/64
f 18/30/65 24/39/66 22/40/67 20/31/68
f 23/41/69 17/29/70 19/32/71 21/42/72
s 1
f 25/43/73 26/44/74 33/45/75 34/46/76
s off
f 41/47/77 42/48/78 43/49/79 44/50/80
s 2
f 35/51/81 36/52/82 32/53/83 31/54/84
s off
f 31/54/85 32/53/86 26/55/87 25/56/88
s 3
f 26/44/89 32/57/90 36/58/91 33/45/92
s 4
f 31/59/93 25/43/94 34/46/95 35/60/96
s 1
f 34/46/76 33/45/75 28/61/97 27/62/98
s 4
f 35/60/96 34/46/95 27/62/99 29/63/100
s 2
f 29/64/101 30/65/102 36/52/82 35/51/81
s 3
f 33/45/92 36/58/91 30/66/103 28/61/104
s off
f 27/62/105 28/61/106 38/67/107 37/68/108
f 28/61/109 30/65/110 39/69/111 38/67/112
f 30/65/113 29/64/114 40/70/115 39/69/116
f 29/64/117 27/62/118 37/68/119 40/70/120
f 37/68/121 38/67/122 42/48/123 41/47/124
f 38/67/125 39/69/126 43/49/127 42/48/128
f 39/69/129 40/70/130 44/50/131 43/49/132
f 40/70/133 37/68/134 41/47/135 44/50/136
